<?xml version="1.0" encoding="utf-8"?>
<svg viewBox="133.571 145.433 28.555 34.139" width="28.555" height="34.139" xmlns="http://www.w3.org/2000/svg">
  <g transform="matrix(0.770289, 0, 0, 0.770289, -5.655549, 106.382675)" style="">
    <path d="M 202.046 95.016 C 197.946 95.016 194.286 94.189 191.066 92.536 C 188.242 91.077 185.951 89.045 184.193 86.437 L 192.492 80.84 C 193.419 82.84 194.713 84.399 196.376 85.516 C 198.043 86.643 199.973 87.206 202.166 87.206 C 203.326 87.206 208.079 86.259 209.206 85.846 L 210.246 79.746 L 217.816 79.746 L 217.816 90.606 C 216.103 91.793 213.913 92.823 211.246 93.696 C 208.586 94.576 205.519 95.016 202.046 95.016 Z M 181.784 81.385 L 191.13 75.081 C 191.2 76.302 191.377 77.448 191.66 78.52 L 182.98 84.374 C 182.506 83.433 182.108 82.437 181.784 81.385 Z M 180.783 75.385 L 191.373 68.242 C 191.188 69.347 191.096 70.538 191.096 71.816 L 191.096 72.222 L 181.182 78.909 C 180.976 77.789 180.843 76.614 180.783 75.385 Z M 180.783 75.385 L 180.746 72.528 C 180.746 72.528 180.808 69.662 180.933 68.608 L 206.857 51.122 C 207.992 51.313 209.106 51.567 210.196 51.886 C 210.459 51.964 210.721 52.047 210.98 52.135 L 201.523 58.514 C 199.528 58.583 197.769 59.104 196.246 60.076 C 194.606 61.116 193.339 62.629 192.446 64.616 C 192.442 64.626 192.437 64.635 192.433 64.645 L 180.746 72.528 C 180.746 72.528 180.758 74.884 180.783 75.385 Z M 217.756 67.086 L 212.883 67.086 L 217.756 63.799 L 217.756 67.086 Z M 209.497 62.692 L 217.756 57.121 L 217.756 60.918 L 210.056 66.111 L 209.497 62.692 Z M 207.066 59.536 C 206.486 59.275 205.875 59.06 205.233 58.893 L 213.61 53.243 C 214.622 53.756 215.603 54.359 216.554 55.05 L 208.647 60.383 C 208.14 60.07 207.613 59.787 207.066 59.536 Z M 183.276 60.886 C 184.963 57.699 187.369 55.203 190.496 53.396 C 193.623 51.596 197.336 50.696 201.636 50.696 C 202.149 50.696 202.659 50.708 203.164 50.731 L 181.556 65.306 C 181.275 66.365 182.544 62.269 183.276 60.886 Z M 217.756 63.799 L 217.756 60.918 L 217.756 63.799 Z" style="white-space: pre; fill: rgb(255, 255, 255);"/>
  </g>
</svg>