<?xml version="1.0" encoding="utf-8"?>
<svg viewBox="135.413 145.138 27.185 32.466" width="27.185" height="32.466" xmlns="http://www.w3.org/2000/svg">
  <path d="M 151.02 177.604 C 148.014 177.604 145.333 176.997 142.977 175.785 C 141.207 174.874 139.724 173.656 138.527 172.129 L 144.707 168.446 C 145.295 169.339 146.015 170.072 146.868 170.649 C 148.092 171.474 152.827 171.796 153.709 171.616 C 154.591 171.435 155.444 171.192 156.268 170.884 L 157.025 166.419 L 162.598 169.586 L 162.57 174.375 C 161.317 175.245 159.715 176 157.765 176.638 C 155.809 177.282 153.561 177.604 151.02 177.604 Z M 135.413 162.111 L 135.413 161.861 L 143.385 157.109 C 143.241 157.705 143.137 158.339 143.074 159.012 L 135.458 163.551 C 135.428 163.082 135.413 162.602 135.413 162.111 Z M 137.267 152.606 C 138.503 150.273 140.267 148.445 142.559 147.122 C 144.846 145.799 147.564 145.138 150.715 145.138 C 151.752 145.138 152.765 145.203 153.754 145.333 L 135.986 155.922 C 136.291 154.748 136.718 153.642 137.267 152.606 Z M 156.991 146.017 C 157.178 146.072 157.364 146.131 157.549 146.193 L 149.536 150.968 C 148.521 151.132 147.599 151.478 146.772 152.005 C 146.069 152.453 145.459 153.021 144.942 153.706 L 135.452 159.363 C 135.485 158.814 135.54 158.276 135.618 157.752 L 155.823 145.709 C 156.217 145.801 156.606 145.903 156.991 146.017 Z M 154.693 151.622 C 154.277 151.43 153.839 151.274 153.378 151.154 L 159.937 147.245 C 160.417 147.509 160.887 147.8 161.348 148.12 L 155.127 151.828 C 154.984 151.756 154.84 151.687 154.693 151.622 Z M 136.619 168.864 C 136.316 168.127 136.07 167.347 135.881 166.525 L 143.004 162.28 C 143.014 163.208 143.102 164.081 143.271 164.9 L 136.619 168.864 Z M 162.526 150.645 L 162.526 153.425 L 156.936 156.757 L 156.524 154.222 L 162.526 150.645 Z" style="white-space: pre;"/>
</svg>