<?xml version="1.0" encoding="utf-8"?>
<svg viewBox="135.413 135.172 232.603 52.75" width="232.603" height="52.75" xmlns="http://www.w3.org/2000/svg">
  <path d="M 176.625 177.128 L 165.145 177.128 L 165.145 173.418 L 167.745 172.808 L 167.745 160.328 L 164.775 159.728 L 164.775 155.998 L 173.615 155.998 L 173.815 158.588 L 173.855 159.098 C 174.348 157.918 174.962 157.041 175.695 156.468 C 176.422 155.895 177.318 155.608 178.385 155.608 C 178.685 155.608 179.035 155.631 179.435 155.678 C 179.828 155.731 180.208 155.811 180.575 155.918 L 179.925 161.678 L 177.035 161.538 C 176.295 161.511 175.705 161.621 175.265 161.868 C 174.818 162.108 174.408 162.475 174.035 162.968 L 174.035 172.808 L 176.625 173.418 L 176.625 177.128 ZM 188.655 185.668 C 188.122 185.668 187.562 185.621 186.975 185.528 C 186.388 185.435 185.815 185.305 185.255 185.138 L 186.005 180.608 C 186.252 180.655 186.512 180.695 186.785 180.728 C 187.058 180.761 187.312 180.778 187.545 180.778 C 188.378 180.778 189.105 180.598 189.725 180.238 C 190.338 179.871 190.758 179.321 190.985 178.588 L 191.315 177.558 L 184.385 160.118 L 181.665 159.728 L 181.665 155.998 L 193.615 155.998 L 193.615 159.728 L 191.025 160.118 L 194.085 169.058 L 194.325 169.708 L 194.435 169.708 L 198.075 160.058 L 195.595 159.728 L 195.595 155.998 L 206.585 155.998 L 206.585 159.728 L 204.145 160.058 L 196.155 180.258 C 195.782 181.205 195.285 182.091 194.665 182.918 C 194.045 183.745 193.248 184.408 192.275 184.908 C 191.295 185.415 190.088 185.668 188.655 185.668 ZM 219.577 185.258 L 208.067 185.258 L 208.067 181.518 L 210.767 180.918 L 210.767 160.328 L 207.757 159.728 L 207.757 155.998 L 216.587 155.998 L 216.857 158.418 C 217.444 157.518 218.16 156.825 219.007 156.338 C 219.854 155.851 220.884 155.608 222.097 155.608 C 223.777 155.608 225.217 156.068 226.417 156.988 C 227.624 157.915 228.55 159.208 229.197 160.868 C 229.837 162.528 230.157 164.458 230.157 166.658 L 230.157 167.068 C 230.157 169.168 229.837 171.005 229.197 172.578 C 228.55 174.151 227.617 175.371 226.397 176.238 C 225.184 177.105 223.724 177.538 222.017 177.538 C 220.924 177.538 219.967 177.338 219.147 176.938 C 218.327 176.545 217.617 175.958 217.017 175.178 L 217.017 180.918 L 219.577 181.518 L 219.577 185.258 Z M 220.137 172.748 C 221.49 172.748 222.45 172.245 223.017 171.238 C 223.584 170.231 223.867 168.841 223.867 167.068 L 223.867 166.658 C 223.867 165.425 223.74 164.341 223.487 163.408 C 223.234 162.475 222.83 161.748 222.277 161.228 C 221.724 160.708 220.997 160.448 220.097 160.448 C 219.424 160.448 218.82 160.601 218.287 160.908 C 217.754 161.215 217.33 161.661 217.017 162.248 L 217.017 171.168 C 217.33 171.688 217.757 172.081 218.297 172.348 C 218.837 172.615 219.45 172.748 220.137 172.748 ZM 241.137 177.558 C 239.05 177.558 237.454 176.995 236.347 175.868 C 235.24 174.741 234.687 172.948 234.687 170.488 L 234.687 160.368 L 231.917 160.368 L 231.917 155.998 L 234.687 155.998 L 234.687 150.798 L 240.917 150.798 L 240.917 155.998 L 244.607 155.998 L 244.607 160.368 L 240.917 160.368 L 240.917 170.488 C 240.917 171.228 241.084 171.755 241.417 172.068 C 241.75 172.381 242.204 172.538 242.777 172.538 C 243.05 172.538 243.337 172.521 243.637 172.488 C 243.937 172.455 244.21 172.411 244.457 172.358 L 244.947 176.988 C 244.347 177.161 243.724 177.298 243.077 177.398 C 242.43 177.505 241.784 177.558 241.137 177.558 ZM 256.683 177.538 C 254.543 177.538 252.716 177.085 251.203 176.178 C 249.683 175.278 248.52 174.015 247.713 172.388 C 246.906 170.768 246.503 168.891 246.503 166.758 L 246.503 166.368 C 246.503 164.255 246.906 162.391 247.713 160.778 C 248.52 159.165 249.68 157.898 251.193 156.978 C 252.7 156.065 254.516 155.608 256.643 155.608 C 258.776 155.608 260.596 156.061 262.103 156.968 C 263.603 157.881 264.756 159.145 265.563 160.758 C 266.37 162.371 266.773 164.241 266.773 166.368 L 266.773 166.758 C 266.773 168.878 266.37 170.748 265.563 172.368 C 264.756 173.995 263.603 175.261 262.103 176.168 C 260.596 177.081 258.79 177.538 256.683 177.538 Z M 256.683 172.748 C 257.59 172.748 258.323 172.501 258.883 172.008 C 259.443 171.515 259.856 170.818 260.123 169.918 C 260.39 169.025 260.523 167.971 260.523 166.758 L 260.523 166.368 C 260.523 165.181 260.39 164.141 260.123 163.248 C 259.856 162.361 259.44 161.665 258.873 161.158 C 258.306 160.658 257.563 160.408 256.643 160.408 C 255.73 160.408 254.99 160.658 254.423 161.158 C 253.856 161.665 253.443 162.361 253.183 163.248 C 252.923 164.141 252.793 165.181 252.793 166.368 L 252.793 166.758 C 252.793 167.978 252.923 169.038 253.183 169.938 C 253.443 170.838 253.856 171.531 254.423 172.018 C 254.99 172.505 255.743 172.748 256.683 172.748 Z" transform="matrix(1, 0, 0, 1, 0, 0)" style="fill: rgb(255, 255, 255); white-space: pre;"/>
  <path d="M 278.725 185.668 C 277.712 185.668 276.612 185.528 275.425 185.248 C 274.239 184.968 273.199 184.585 272.305 184.098 L 273.295 181.108 C 274.015 181.488 274.862 181.801 275.835 182.048 C 276.815 182.295 277.765 182.418 278.685 182.418 C 280.405 182.418 281.665 181.938 282.465 180.978 C 283.265 180.011 283.665 178.638 283.665 176.858 L 283.665 174.838 C 282.979 175.725 282.152 176.398 281.185 176.858 C 280.225 177.311 279.119 177.538 277.865 177.538 C 276.152 177.538 274.669 177.111 273.415 176.258 C 272.169 175.405 271.209 174.215 270.535 172.688 C 269.862 171.155 269.525 169.378 269.525 167.358 L 269.525 166.948 C 269.525 164.688 269.862 162.705 270.535 160.998 C 271.209 159.291 272.169 157.965 273.415 157.018 C 274.669 156.078 276.165 155.608 277.905 155.608 C 279.232 155.608 280.399 155.868 281.405 156.388 C 282.405 156.908 283.245 157.661 283.925 158.648 L 284.275 155.998 L 287.515 155.998 L 287.515 176.858 C 287.515 178.678 287.175 180.245 286.495 181.558 C 285.809 182.878 284.812 183.891 283.505 184.598 C 282.199 185.311 280.605 185.668 278.725 185.668 Z M 278.825 174.418 C 279.985 174.418 280.955 174.151 281.735 173.618 C 282.515 173.091 283.159 172.348 283.665 171.388 L 283.665 161.658 C 283.172 160.758 282.529 160.045 281.735 159.518 C 280.942 158.991 279.985 158.728 278.865 158.728 C 277.639 158.728 276.619 159.081 275.805 159.788 C 274.992 160.488 274.385 161.455 273.985 162.688 C 273.579 163.915 273.375 165.335 273.375 166.948 L 273.375 167.358 C 273.375 169.485 273.825 171.191 274.725 172.478 C 275.625 173.771 276.992 174.418 278.825 174.418 Z M 290.135 158.458 L 286.935 159.138 L 285.425 155.998 L 290.135 155.998 L 290.135 158.458 ZM 302.221 177.128 L 292.011 177.128 L 292.011 174.668 L 295.191 174.118 L 295.191 159.018 L 292.011 158.478 L 292.011 155.998 L 298.631 155.998 L 298.961 158.688 L 299.001 159.058 C 299.601 157.978 300.341 157.131 301.221 156.518 C 302.094 155.911 303.098 155.608 304.231 155.608 C 304.638 155.608 305.051 155.641 305.471 155.708 C 305.898 155.781 306.201 155.851 306.381 155.918 L 305.871 159.488 L 303.201 159.338 C 302.181 159.271 301.328 159.501 300.641 160.028 C 299.948 160.555 299.414 161.261 299.041 162.148 L 299.041 174.118 L 302.221 174.668 L 302.221 177.128 ZM 315.559 177.538 C 313.359 177.538 311.686 177.001 310.539 175.928 C 309.393 174.855 308.819 173.341 308.819 171.388 C 308.819 170.048 309.189 168.878 309.929 167.878 C 310.663 166.885 311.726 166.111 313.119 165.558 C 314.513 165.005 316.179 164.728 318.119 164.728 L 321.889 164.728 L 321.889 162.658 C 321.889 161.378 321.503 160.388 320.729 159.688 C 319.956 158.981 318.866 158.628 317.459 158.628 C 316.573 158.628 315.803 158.738 315.149 158.958 C 314.496 159.171 313.903 159.465 313.369 159.838 L 312.959 162.788 L 309.989 162.788 L 309.989 157.948 C 310.943 157.181 312.053 156.598 313.319 156.198 C 314.579 155.805 315.976 155.608 317.509 155.608 C 320.076 155.608 322.089 156.218 323.549 157.438 C 325.009 158.665 325.739 160.418 325.739 162.698 L 325.739 172.868 C 325.739 173.141 325.743 173.408 325.749 173.668 C 325.756 173.928 325.773 174.188 325.799 174.448 L 327.849 174.668 L 327.849 177.128 L 322.319 177.128 C 322.199 176.555 322.109 176.041 322.049 175.588 C 321.983 175.128 321.936 174.671 321.909 174.218 C 321.169 175.171 320.243 175.961 319.129 176.588 C 318.016 177.221 316.826 177.538 315.559 177.538 Z M 316.129 174.318 C 317.403 174.318 318.566 174.011 319.619 173.398 C 320.679 172.785 321.436 172.048 321.889 171.188 L 321.889 167.358 L 317.979 167.358 C 316.213 167.358 314.886 167.781 313.999 168.628 C 313.113 169.475 312.669 170.421 312.669 171.468 C 312.669 172.388 312.956 173.095 313.529 173.588 C 314.103 174.075 314.969 174.318 316.129 174.318 ZM 341.047 177.128 L 330.837 177.128 L 330.837 174.668 L 334.017 174.118 L 334.017 159.018 L 330.837 158.478 L 330.837 155.998 L 337.477 155.998 L 337.727 158.748 C 338.407 157.748 339.28 156.975 340.347 156.428 C 341.414 155.881 342.65 155.608 344.057 155.608 C 345.464 155.608 346.67 155.931 347.677 156.578 C 348.684 157.231 349.444 158.208 349.957 159.508 C 350.617 158.315 351.494 157.365 352.587 156.658 C 353.68 155.958 354.957 155.608 356.417 155.608 C 358.577 155.608 360.284 156.345 361.537 157.818 C 362.784 159.298 363.407 161.521 363.407 164.488 L 363.407 174.118 L 366.597 174.668 L 366.597 177.128 L 356.357 177.128 L 356.357 174.668 L 359.547 174.118 L 359.547 164.448 C 359.547 162.368 359.187 160.895 358.467 160.028 C 357.754 159.161 356.694 158.728 355.287 158.728 C 353.947 158.728 352.87 159.201 352.057 160.148 C 351.244 161.088 350.77 162.275 350.637 163.708 L 350.637 174.118 L 353.817 174.668 L 353.817 177.128 L 343.607 177.128 L 343.607 174.668 L 346.787 174.118 L 346.787 164.448 C 346.787 162.475 346.42 161.028 345.687 160.108 C 344.954 159.188 343.89 158.728 342.497 158.728 C 341.324 158.728 340.357 158.968 339.597 159.448 C 338.844 159.935 338.267 160.615 337.867 161.488 L 337.867 174.118 L 341.047 174.668 L 341.047 177.128 Z" transform="matrix(1, 0, 0, 1, 0, 0)" style="fill: rgb(255, 255, 255); white-space: pre;"/>
  <path d="M 151.02 177.604 C 148.014 177.604 145.333 176.997 142.977 175.785 C 141.207 174.874 139.724 173.656 138.527 172.129 L 144.707 168.446 C 145.295 169.339 146.015 170.072 146.868 170.649 C 148.092 171.474 152.827 171.796 153.709 171.616 C 154.591 171.435 155.444 171.192 156.268 170.884 L 157.025 166.419 L 162.598 169.586 L 162.57 174.375 C 161.317 175.245 159.715 176 157.765 176.638 C 155.809 177.282 153.561 177.604 151.02 177.604 Z M 135.413 162.111 L 135.413 161.861 L 143.385 157.109 C 143.241 157.705 143.137 158.339 143.074 159.012 L 135.458 163.551 C 135.428 163.082 135.413 162.602 135.413 162.111 Z M 137.267 152.606 C 138.503 150.273 140.267 148.445 142.559 147.122 C 144.846 145.799 147.564 145.138 150.715 145.138 C 151.752 145.138 152.765 145.203 153.754 145.333 L 135.986 155.922 C 136.291 154.748 136.718 153.642 137.267 152.606 Z M 156.991 146.017 C 157.178 146.072 157.364 146.131 157.549 146.193 L 149.536 150.968 C 148.521 151.132 147.599 151.478 146.772 152.005 C 146.069 152.453 145.459 153.021 144.942 153.706 L 135.452 159.363 C 135.485 158.814 135.54 158.276 135.618 157.752 L 155.823 145.709 C 156.217 145.801 156.606 145.903 156.991 146.017 Z M 154.693 151.622 C 154.277 151.43 153.839 151.274 153.378 151.154 L 159.937 147.245 C 160.417 147.509 160.887 147.8 161.348 148.12 L 155.127 151.828 C 154.984 151.756 154.84 151.687 154.693 151.622 Z M 136.619 168.864 C 136.316 168.127 136.07 167.347 135.881 166.525 L 143.004 162.28 C 143.014 163.208 143.102 164.081 143.271 164.9 L 136.619 168.864 Z M 162.526 150.645 L 162.526 153.425 L 156.936 156.757 L 156.524 154.222 L 162.526 150.645 Z" style="white-space: pre; paint-order: fill; vector-effect: non-scaling-stroke; stroke: rgb(255, 255, 255); fill: rgb(255, 255, 255);"/>
</svg>