<?xml version="1.0" encoding="UTF-8" standalone="no"?>
<!DOCTYPE svg PUBLIC "-//W3C//DTD SVG 1.1//EN" "http://www.w3.org/Graphics/SVG/1.1/DTD/svg11.dtd">
<svg version="1.1" xmlns="http://www.w3.org/2000/svg" xmlns:xlink="http://www.w3.org/1999/xlink" preserveAspectRatio="xMidYMid meet" viewBox="116.21050767315278 97.83062251395276 399.97257912117976 346.9926462529751" width="399.97" height="346.99"><defs><path d="M243.25 288.15C428.36 294.72 310.25 428.33 356.87 412.59C403.48 396.86 505.4 245.17 280.94 232.1C185.55 226.54 137.86 221.68 133.18 125.39C128.5 29.1 58.14 281.58 243.25 288.15Z" id="aODFxMde5"></path><path d="M298.18 373.54C307.29 405.01 276.67 452.4 298.76 443.8C320.85 435.2 341.66 386.68 337.91 350.78C334.15 314.88 276.34 289.38 267.75 321.25C259.16 353.12 289.06 342.06 298.18 373.54Z" id="bRDeAcLZe"></path><path d="M435.6 308.08C435.38 287.52 421.29 261.06 389.33 246.46C413.62 244.33 499.43 226.64 492.99 121.98C486.55 17.32 578.41 285.36 435.6 308.08Z" id="bAjpGMzG4"></path></defs><g><g><g><use xlink:href="#aODFxMde5" opacity="1" fill="#044e72" fill-opacity="1"></use></g><g><use xlink:href="#bRDeAcLZe" opacity="1" fill="#044e72" fill-opacity="1"></use></g><g><use xlink:href="#bAjpGMzG4" opacity="1" fill="#044e72" fill-opacity="1"></use></g></g></g></svg>